<mxfile host="65bd71144e">
    <diagram id="dIzm7n2q1fo4g0rNfz-7" name="Page-1">
        <mxGraphModel dx="933" dy="645" grid="1" gridSize="10" guides="1" tooltips="1" connect="1" arrows="1" fold="1" page="1" pageScale="1" pageWidth="850" pageHeight="1100" math="0" shadow="0">
            <root>
                <mxCell id="0"/>
                <mxCell id="1" parent="0"/>
                <mxCell id="2" value="Init" style="rounded=0;whiteSpace=wrap;html=1;" parent="1" vertex="1">
                    <mxGeometry x="290" y="60" width="200" height="30" as="geometry"/>
                </mxCell>
                <mxCell id="5" value="" style="edgeStyle=none;html=1;" parent="1" source="3" target="2" edge="1">
                    <mxGeometry relative="1" as="geometry"/>
                </mxCell>
                <mxCell id="9" value="" style="edgeStyle=none;html=1;" parent="1" source="3" target="7" edge="1">
                    <mxGeometry relative="1" as="geometry"/>
                </mxCell>
                <mxCell id="3" value="Schedule task" style="rounded=0;whiteSpace=wrap;html=1;" parent="1" vertex="1">
                    <mxGeometry x="325" y="140" width="130" height="40" as="geometry"/>
                </mxCell>
                <mxCell id="10" value="" style="edgeStyle=none;html=1;" parent="1" source="7" target="8" edge="1">
                    <mxGeometry relative="1" as="geometry"/>
                </mxCell>
                <mxCell id="7" value="&lt;div style=&quot;color: rgb(204, 204, 204); background-color: rgb(31, 31, 31); font-family: Consolas, &amp;quot;Courier New&amp;quot;, monospace; font-size: 14px; line-height: 19px;&quot;&gt;&lt;span style=&quot;color: #dcdcaa;&quot;&gt;get_ipconfig_data&lt;/span&gt;()&lt;/div&gt;" style="rounded=0;whiteSpace=wrap;html=1;" parent="1" vertex="1">
                    <mxGeometry x="291" y="250" width="195" height="30" as="geometry"/>
                </mxCell>
                <mxCell id="12" value="" style="edgeStyle=none;html=1;" parent="1" source="8" target="11" edge="1">
                    <mxGeometry relative="1" as="geometry"/>
                </mxCell>
                <mxCell id="8" value="&lt;div style=&quot;color: rgb(204, 204, 204); background-color: rgb(31, 31, 31); font-family: Consolas, &amp;quot;Courier New&amp;quot;, monospace; font-size: 14px; line-height: 19px;&quot;&gt;&lt;span style=&quot;color: #dcdcaa;&quot;&gt;get_network_address&lt;/span&gt;(&lt;span style=&quot;color: #9cdcfe;&quot;&gt;ip&lt;/span&gt;, &lt;span style=&quot;color: #9cdcfe;&quot;&gt;netmask&lt;/span&gt;)&lt;/div&gt;" style="rounded=0;whiteSpace=wrap;html=1;" parent="1" vertex="1">
                    <mxGeometry x="258.5" y="320" width="260" height="30" as="geometry"/>
                </mxCell>
                <mxCell id="27" value="" style="edgeStyle=none;html=1;" parent="1" source="11" target="26" edge="1">
                    <mxGeometry relative="1" as="geometry"/>
                </mxCell>
                <mxCell id="11" value="&lt;div style=&quot;color: rgb(204, 204, 204); background-color: rgb(31, 31, 31); font-family: Consolas, &amp;quot;Courier New&amp;quot;, monospace; font-size: 14px; line-height: 19px;&quot;&gt;&lt;span style=&quot;color: #dcdcaa;&quot;&gt;scan_network&lt;/span&gt;(&lt;span style=&quot;color: #9cdcfe;&quot;&gt;ip_net&lt;/span&gt;)&lt;/div&gt;" style="rounded=0;whiteSpace=wrap;html=1;" parent="1" vertex="1">
                    <mxGeometry x="298.5" y="390" width="180" height="30" as="geometry"/>
                </mxCell>
                <mxCell id="21" value="" style="edgeStyle=none;html=1;" parent="1" source="14" target="20" edge="1">
                    <mxGeometry relative="1" as="geometry"/>
                </mxCell>
                <mxCell id="14" value="Conect DB" style="rounded=0;whiteSpace=wrap;html=1;" parent="1" vertex="1">
                    <mxGeometry x="543.5" y="390" width="140" height="40" as="geometry"/>
                </mxCell>
                <mxCell id="18" value="" style="edgeStyle=none;html=1;" parent="1" source="15" target="17" edge="1">
                    <mxGeometry relative="1" as="geometry"/>
                </mxCell>
                <mxCell id="15" value="device exist" style="rhombus;whiteSpace=wrap;html=1;" parent="1" vertex="1">
                    <mxGeometry x="561.75" y="539" width="105.5" height="60" as="geometry"/>
                </mxCell>
                <mxCell id="17" value="set online" style="rounded=0;whiteSpace=wrap;html=1;" parent="1" vertex="1">
                    <mxGeometry x="712" y="549" width="114" height="40" as="geometry"/>
                </mxCell>
                <mxCell id="19" value="YES" style="text;html=1;strokeColor=none;fillColor=none;align=center;verticalAlign=middle;whiteSpace=wrap;rounded=0;" parent="1" vertex="1">
                    <mxGeometry x="655" y="536" width="60" height="30" as="geometry"/>
                </mxCell>
                <mxCell id="22" value="" style="edgeStyle=none;html=1;" parent="1" source="20" target="15" edge="1">
                    <mxGeometry relative="1" as="geometry"/>
                </mxCell>
                <mxCell id="20" value="set all devices offline" style="rounded=0;whiteSpace=wrap;html=1;" parent="1" vertex="1">
                    <mxGeometry x="530" y="459" width="170" height="30" as="geometry"/>
                </mxCell>
                <mxCell id="24" style="edgeStyle=none;html=1;exitX=0.5;exitY=1;exitDx=0;exitDy=0;entryX=0;entryY=0.5;entryDx=0;entryDy=0;" parent="1" source="15" target="15" edge="1">
                    <mxGeometry relative="1" as="geometry">
                        <Array as="points">
                            <mxPoint x="615" y="639"/>
                            <mxPoint x="545" y="639"/>
                            <mxPoint x="545" y="569"/>
                        </Array>
                    </mxGeometry>
                </mxCell>
                <mxCell id="25" value="NO" style="text;html=1;strokeColor=none;fillColor=none;align=center;verticalAlign=middle;whiteSpace=wrap;rounded=0;" parent="1" vertex="1">
                    <mxGeometry x="607.25" y="609" width="60" height="30" as="geometry"/>
                </mxCell>
                <mxCell id="28" style="edgeStyle=none;html=1;exitX=1;exitY=0.5;exitDx=0;exitDy=0;entryX=0;entryY=0.5;entryDx=0;entryDy=0;" parent="1" source="26" target="14" edge="1">
                    <mxGeometry relative="1" as="geometry"/>
                </mxCell>
                <mxCell id="30" value="" style="edgeStyle=none;html=1;" parent="1" source="26" target="29" edge="1">
                    <mxGeometry relative="1" as="geometry"/>
                </mxCell>
                <mxCell id="26" value="update DB" style="rounded=0;whiteSpace=wrap;html=1;" parent="1" vertex="1">
                    <mxGeometry x="329" y="459" width="120" height="41" as="geometry"/>
                </mxCell>
                <mxCell id="33" value="" style="edgeStyle=none;html=1;" parent="1" source="29" target="32" edge="1">
                    <mxGeometry relative="1" as="geometry"/>
                </mxCell>
                <mxCell id="29" value="deepscan_network" style="rounded=0;whiteSpace=wrap;html=1;" parent="1" vertex="1">
                    <mxGeometry x="322.5" y="549" width="132" height="51" as="geometry"/>
                </mxCell>
                <mxCell id="35" value="" style="edgeStyle=none;html=1;" parent="1" source="32" target="34" edge="1">
                    <mxGeometry relative="1" as="geometry"/>
                </mxCell>
                <mxCell id="32" value="update db" style="rounded=0;whiteSpace=wrap;html=1;" parent="1" vertex="1">
                    <mxGeometry x="330" y="640" width="120" height="40" as="geometry"/>
                </mxCell>
                <mxCell id="36" style="edgeStyle=none;html=1;entryX=0;entryY=0.5;entryDx=0;entryDy=0;" parent="1" source="34" target="3" edge="1">
                    <mxGeometry relative="1" as="geometry">
                        <Array as="points">
                            <mxPoint x="200" y="740"/>
                            <mxPoint x="200" y="460"/>
                            <mxPoint x="200" y="160"/>
                        </Array>
                    </mxGeometry>
                </mxCell>
                <mxCell id="34" value="end" style="rounded=0;whiteSpace=wrap;html=1;" parent="1" vertex="1">
                    <mxGeometry x="330" y="720" width="120" height="30" as="geometry"/>
                </mxCell>
                <mxCell id="37" value="&lt;ul&gt;&lt;li&gt;mac id&lt;/li&gt;&lt;li&gt;ip&lt;/li&gt;&lt;li&gt;mac_brand&lt;/li&gt;&lt;li&gt;name&lt;/li&gt;&lt;li&gt;type&lt;/li&gt;&lt;li&gt;device_brand&lt;/li&gt;&lt;li&gt;device_model&lt;/li&gt;&lt;li&gt;device_os&lt;/li&gt;&lt;li&gt;device_os_ver&lt;/li&gt;&lt;li&gt;online&lt;/li&gt;&lt;li&gt;first_detect&lt;/li&gt;&lt;li&gt;open_ports&lt;/li&gt;&lt;/ul&gt;" style="text;strokeColor=none;fillColor=none;html=1;whiteSpace=wrap;verticalAlign=middle;overflow=hidden;" parent="1" vertex="1">
                    <mxGeometry x="667.25" y="80" width="160" height="270" as="geometry"/>
                </mxCell>
                <mxCell id="38" value="DB" style="text;strokeColor=none;fillColor=none;html=1;fontSize=24;fontStyle=1;verticalAlign=middle;align=center;" parent="1" vertex="1">
                    <mxGeometry x="683.5" y="50" width="100" height="40" as="geometry"/>
                </mxCell>
                <mxCell id="39" value="&lt;ul&gt;&lt;li&gt;mac id&lt;/li&gt;&lt;li&gt;datetime&lt;/li&gt;&lt;li&gt;status&lt;/li&gt;&lt;/ul&gt;" style="text;strokeColor=none;fillColor=none;html=1;whiteSpace=wrap;verticalAlign=middle;overflow=hidden;" parent="1" vertex="1">
                    <mxGeometry x="543.5" y="80" width="100" height="90" as="geometry"/>
                </mxCell>
                <mxCell id="40" value="DB HIS" style="text;strokeColor=none;fillColor=none;html=1;fontSize=24;fontStyle=1;verticalAlign=middle;align=center;" parent="1" vertex="1">
                    <mxGeometry x="555" y="50" width="100" height="40" as="geometry"/>
                </mxCell>
            </root>
        </mxGraphModel>
    </diagram>
</mxfile>